<svg width="36" height="36" viewBox="0 0 36 36" fill="none" xmlns="http://www.w3.org/2000/svg">
<path d="M18 36C27.9411 36 36 27.9411 36 18C36 8.05887 27.9411 0 18 0C8.05887 0 0 8.05887 0 18C0 27.9411 8.05887 36 18 36Z" fill="#FAD762"/>
<path d="M36.0001 17.9997C36.0001 27.9447 27.9395 35.9997 18.0002 35.9997C12.3414 35.9997 7.29015 33.3897 3.98828 29.3003C7.0764 31.7978 11.0083 33.2884 15.2889 33.2884C25.2283 33.2884 33.2889 25.2334 33.2889 15.2884C33.2889 11.0078 31.7983 7.07592 29.3008 3.98779C33.3845 7.28967 36.0001 12.3409 36.0001 17.9997Z" fill="#FFB900"/>
<path d="M23.3741 27.0558C23.3741 27.5811 22.9544 27.9929 22.4369 27.9929H13.5641C13.0466 27.9929 12.627 27.58 12.627 27.0558C12.627 26.5383 13.0466 26.1187 13.5641 26.1187H22.4369C22.9533 26.1187 23.3741 26.5383 23.3741 27.0558Z" fill="#0D0B3C"/>
<path d="M7.86156 18.3991C8.30143 18.1404 9.60306 19.5354 11.6472 19.6119C13.7633 19.6907 14.9929 18.1404 15.4328 18.3991C15.9807 18.587 15.2337 22.1645 11.6472 22.178C8.06181 22.1645 7.31368 18.587 7.86156 18.3991Z" fill="#0D0B3C"/>
<path d="M7.01749 16.8266C6.60911 16.7613 6.33011 16.3766 6.39649 15.9671C6.46286 15.5587 6.84086 15.2786 7.25599 15.3461C11.4725 16.0233 12.7539 13.0117 12.7662 12.9813C12.9215 12.5977 13.358 12.4132 13.7439 12.5696C14.1275 12.7259 14.312 13.1636 14.1556 13.5472C13.3096 15.6194 10.6524 17.4104 7.01749 16.8266Z" fill="#FFB900"/>
<path d="M28.139 18.3991C27.6991 18.1404 26.3975 19.5354 24.3533 19.6119C22.2372 19.6907 21.0076 18.1404 20.5677 18.3991C20.0198 18.587 20.7668 22.1645 24.3533 22.178C27.9387 22.1645 28.6868 18.587 28.139 18.3991Z" fill="#0D0B3C"/>
<path d="M21.8437 13.5457C21.6874 13.1621 21.8719 12.7244 22.2555 12.5681C22.638 12.4117 23.0745 12.5951 23.232 12.9764C23.2882 13.1114 24.5764 16.0151 28.7434 15.3457C29.1562 15.2782 29.5376 15.5583 29.6029 15.9667C29.6681 16.3762 29.3902 16.7609 28.9819 16.8262C25.3729 17.4067 22.6965 15.6371 21.8437 13.5457Z" fill="#FFB900"/>
</svg>
