<svg width="482" height="265" viewBox="0 0 482 265" fill="none" xmlns="http://www.w3.org/2000/svg">
<path d="M412.649 78.8991C374.699 78.8991 343.9 109.801 343.9 147.878C343.9 185.954 374.699 216.856 412.649 216.856C450.598 216.856 481.857 185.954 481.857 147.878C481.857 109.801 450.598 78.8991 412.649 78.8991ZM412.649 175.469C397.525 175.469 385.149 163.052 385.149 147.878C385.149 132.702 397.525 120.286 412.649 120.286C427.773 120.286 440.149 132.702 440.149 147.878C440.149 163.052 427.773 175.469 412.649 175.469Z" fill="url(#paint0_linear)"/>
<path d="M244.155 76.4164C203.066 76.4164 169.718 109.764 169.718 150.854C169.718 191.943 203.066 225.291 244.155 225.291C285.245 225.291 319.089 191.943 319.089 150.854C319.089 109.764 285.245 76.4164 244.155 76.4164ZM244.155 180.629C227.78 180.629 214.38 167.229 214.38 150.854C214.38 134.477 227.78 121.079 244.155 121.079C260.531 121.079 273.93 134.477 273.93 150.854C273.93 167.229 260.531 180.629 244.155 180.629Z" fill="#4D5FC1"/>
<path d="M244.155 76.4164C203.066 76.4164 169.718 109.764 169.718 150.854C169.718 191.943 203.066 225.291 244.155 225.291C285.245 225.291 319.089 191.943 319.089 150.854C319.089 109.764 285.245 76.4164 244.155 76.4164ZM244.155 180.629C227.78 180.629 214.38 167.229 214.38 150.854C214.38 134.477 227.78 121.079 244.155 121.079C260.531 121.079 273.93 134.477 273.93 150.854C273.93 167.229 260.531 180.629 244.155 180.629Z" fill="url(#paint1_linear)"/>
<path d="M139.943 76.4169C98.8534 76.4169 65.0093 109.765 65.0093 150.854C65.0093 191.943 98.8534 225.291 139.943 225.291C181.032 225.291 214.38 191.943 214.38 150.854C214.38 109.765 181.032 76.4169 139.943 76.4169ZM139.943 180.629C123.567 180.629 110.168 167.23 110.168 150.854C110.168 134.477 123.567 121.079 139.943 121.079C156.318 121.079 169.718 134.477 169.718 150.854C169.718 167.23 156.318 180.629 139.943 180.629Z" fill="#36458F"/>
<path d="M139.943 225.291C98.8534 225.291 65.0093 191.943 65.0093 150.854C65.0093 109.765 98.8534 76.4169 139.943 76.4169C181.032 76.4169 214.38 109.765 214.38 150.854C214.38 191.943 181.032 225.291 139.943 225.291ZM139.943 121.079C123.567 121.079 110.168 134.478 110.168 150.854C110.168 167.231 123.567 180.629 139.943 180.629C156.318 180.629 169.718 167.231 169.718 150.854C169.718 134.478 156.318 121.079 139.943 121.079Z" fill="url(#paint2_linear)"/>
<path d="M214.38 150.859C214.38 191.948 181.032 225.296 139.942 225.296C98.8531 225.296 65.009 191.948 65.009 150.859H110.168C110.168 167.234 123.567 180.633 139.942 180.633C156.318 180.633 169.717 167.234 169.717 150.859H214.38Z" fill="url(#paint3_linear)"/>
<path d="M319.089 150.859C319.089 191.948 285.245 225.296 244.155 225.296C203.066 225.296 169.718 191.948 169.718 150.859H214.38C214.38 167.234 227.78 180.633 244.155 180.633C260.531 180.633 273.93 167.234 273.93 150.859H319.089Z" fill="url(#paint4_linear)"/>
<rect width="45.1586" height="225.297" rx="0.992496" fill="url(#paint5_linear)"/>
<rect x="338.938" y="76.4254" width="45.1586" height="188.574" rx="0.992496" fill="url(#paint6_linear)"/>
<defs>
<linearGradient id="paint0_linear" x1="357" y1="67.5" x2="525.5" y2="256.5" gradientUnits="userSpaceOnUse">
<stop stop-color="#97A5FB"/>
<stop offset="0.211432" stop-color="#97A5FB"/>
<stop offset="0.248473" stop-color="#97A5FB"/>
<stop offset="0.756918" stop-color="#B4C0FF"/>
<stop offset="1" stop-color="#B4C0FF"/>
</linearGradient>
<linearGradient id="paint1_linear" x1="278" y1="144.5" x2="0.499963" y2="-197.5" gradientUnits="userSpaceOnUse">
<stop stop-color="#97A5FB"/>
<stop offset="1" stop-color="#1F295A"/>
<stop offset="1" stop-color="#EFF2FF"/>
</linearGradient>
<linearGradient id="paint2_linear" x1="67.5" y1="151" x2="181.684" y2="154.513" gradientUnits="userSpaceOnUse">
<stop stop-color="#95A3F9"/>
<stop offset="0.478757" stop-color="#97A5FB"/>
<stop offset="0.843977" stop-color="#B2BEFE"/>
<stop offset="1" stop-color="#B2BEFE"/>
</linearGradient>
<linearGradient id="paint3_linear" x1="191.056" y1="194.776" x2="65" y2="151" gradientUnits="userSpaceOnUse">
<stop stop-color="#818EDD"/>
<stop offset="0.658513" stop-color="#97A5FB"/>
<stop offset="1" stop-color="#95A3F9"/>
</linearGradient>
<linearGradient id="paint4_linear" x1="212.643" y1="145.896" x2="311.893" y2="142.422" gradientUnits="userSpaceOnUse">
<stop stop-color="#B4C0FF" stop-opacity="0.96"/>
<stop offset="0.251346" stop-color="#B1BDFC"/>
<stop offset="0.668963" stop-color="#97A5FB"/>
<stop offset="1" stop-color="#97A5FB" stop-opacity="0.69"/>
</linearGradient>
<linearGradient id="paint5_linear" x1="-60.5" y1="43.5" x2="45.1586" y2="225.297" gradientUnits="userSpaceOnUse">
<stop stop-color="#97A5FB"/>
<stop offset="1" stop-color="#B4C0FF"/>
</linearGradient>
<linearGradient id="paint6_linear" x1="281" y1="20.9999" x2="416.5" y2="251.5" gradientUnits="userSpaceOnUse">
<stop stop-color="#97A5FB"/>
<stop offset="0.322775" stop-color="#97A5FB"/>
<stop offset="0.535114" stop-color="#97A5FB"/>
<stop offset="1" stop-color="#B4C0FF"/>
</linearGradient>
</defs>
</svg>
